<?xml version="1.0" standalone="no"?><!DOCTYPE svg PUBLIC "-//W3C//DTD SVG 1.1//EN" "http://www.w3.org/Graphics/SVG/1.1/DTD/svg11.dtd"><svg t="1714120415073" class="icon" viewBox="0 0 1024 1024" version="1.1" xmlns="http://www.w3.org/2000/svg" p-id="16291" xmlns:xlink="http://www.w3.org/1999/xlink" width="200" height="200"><path d="M624.3 320c-26.4 0-48-21.6-48-48V0h-400C149.7 0 128.3 21.4 128.3 48v928c0 26.6 21.4 48 48 48h672c26.6 0 48-21.4 48-48V320h-272z m98 552.8c0 12.8-10.4 23.2-23.2 23.2h-39.6c-12.8 0-23.2-10.4-23.2-23.2v-228L550.7 838c-3.8 8.4-12 13.8-21.2 13.8h-34.8c-9.2 0-17.4-5.4-21.2-13.8l-85.6-192.6v227.6c0 12.8-10.4 23.2-23.2 23.2H325.5c-12.8 0-23.2-10.4-23.2-23.2v-394c0-12.8 10.4-23.2 23.2-23.2h50.6c9.2 0 17.6 5.6 21.2 14L512.5 734l115-264.4c3.6-8.6 12-14 21.2-14h50.4c12.8 0 23.2 10.4 23.2 23.2v394z" fill="#01998A" p-id="16292"></path><path d="M895.3 243.8c0-12.6-5-24.8-14-33.8L685.5 14c-9-9-21.2-14-34-14h-12.2v256h256v-12.2z" fill="#01998A" p-id="16293"></path></svg>